<svg width="57" height="50" viewBox="0 0 57 50" fill="none" xmlns="http://www.w3.org/2000/svg">
<g filter="url(#filter0_d_1_125)">
<path d="M26.5 0H51C52.1046 0 53 0.895431 53 2V23V31.9516C53 33.0562 52.1046 33.9516 51 33.9516H38.7839C38.235 33.9516 37.7102 34.1772 37.3326 34.5755L27.9693 44.4504C27.1739 45.2893 25.8349 45.281 25.0499 44.4324L15.9483 34.5935C15.5697 34.1843 15.0376 33.9516 14.4801 33.9516H2C0.895432 33.9516 0 33.0562 0 31.9516V23V2C0 0.89543 0.895431 0 2 0H26.5Z" fill="#E5E5E5"/>
<path d="M26.5 0.5H51C51.8284 0.5 52.5 1.17157 52.5 2V23V31.9516C52.5 32.7801 51.8284 33.4516 51 33.4516H38.7839C38.0978 33.4516 37.4418 33.7336 36.9697 34.2315L27.6065 44.1064C27.0099 44.7355 26.0057 44.7294 25.4169 44.0929L16.3153 34.254C15.8421 33.7425 15.1769 33.4516 14.4801 33.4516H2C1.17157 33.4516 0.5 32.7801 0.5 31.9516V23V2C0.5 1.17157 1.17157 0.5 2 0.5H26.5Z" stroke="black"/>
</g>
<defs>
<filter id="filter0_d_1_125" x="0" y="0" width="57" height="49.0742" filterUnits="userSpaceOnUse" color-interpolation-filters="sRGB">
<feFlood flood-opacity="0" result="BackgroundImageFix"/>
<feColorMatrix in="SourceAlpha" type="matrix" values="0 0 0 0 0 0 0 0 0 0 0 0 0 0 0 0 0 0 127 0" result="hardAlpha"/>
<feOffset dx="4" dy="4"/>
<feComposite in2="hardAlpha" operator="out"/>
<feColorMatrix type="matrix" values="0 0 0 0 0 0 0 0 0 0 0 0 0 0 0 0 0 0 1 0"/>
<feBlend mode="normal" in2="BackgroundImageFix" result="effect1_dropShadow_1_125"/>
<feBlend mode="normal" in="SourceGraphic" in2="effect1_dropShadow_1_125" result="shape"/>
</filter>
</defs>
</svg>
